<?xml version="1.0" encoding="UTF-8"?>
<!DOCTYPE svg PUBLIC "-//W3C//DTD SVG 1.1//EN" "http://www.w3.org/Graphics/SVG/1.1/DTD/svg11.dtd">
<!-- Creator: CorelDRAW -->
<svg xmlns="http://www.w3.org/2000/svg" xml:space="preserve" width="1.3125in" height="0.275311in" version="1.1" style="shape-rendering:geometricPrecision; text-rendering:geometricPrecision; image-rendering:optimizeQuality; fill-rule:evenodd; clip-rule:evenodd"
viewBox="0 0 272.32 57.12"
 xmlns:xlink="http://www.w3.org/1999/xlink"
 xmlns:xodm="http://www.corel.com/coreldraw/odm/2003">
 <defs>
  <style type="text/css">
   <![CDATA[
    .fil0 {fill:#213F7D;fill-rule:nonzero}
   ]]>
  </style>
 </defs>
 <g id="Layer_x0020_1">
  <metadata id="CorelCorpID_0Corel-Layer"/>
  <g id="LSQ_x0020_Logo.svg">
   <path class="fil0" d="M-0 1.76c0,-0.47 0.18,-0.91 0.5,-1.24 0.32,-0.33 0.75,-0.51 1.2,-0.51l5.11 0c0.45,0 0.88,0.19 1.2,0.52 0.32,0.33 0.5,0.78 0.5,1.25l0 31.86c0,0.47 0.18,0.92 0.5,1.25 0.32,0.33 0.75,0.52 1.2,0.52l22.13 0c0.45,0 0.88,-0.19 1.2,-0.52 0.32,-0.33 0.5,-0.78 0.5,-1.25l0 -5.3c0,-0.47 -0.18,-0.92 -0.5,-1.25 -0.32,-0.33 -0.75,-0.52 -1.2,-0.52l-10.21 0c-1.35,0 -2.65,-0.56 -3.61,-1.56 -0.96,-1 -1.5,-2.35 -1.5,-3.76l0 -15.93c0,-1.41 0.54,-2.76 1.5,-3.76 0.96,-1 2.26,-1.56 3.61,-1.56l15.31 0c1.35,0 2.65,0.56 3.61,1.56 0.96,1 1.5,2.35 1.5,3.76l0 33.65c0,1.41 -0.54,2.76 -1.5,3.76 -0.96,1 -2.26,1.56 -3.61,1.56l-32.34 0c-1.35,0 -2.65,-0.56 -3.61,-1.56 -0.96,-1 -1.5,-2.35 -1.5,-3.76l0 -37.2zm34.05 8.85c0,-0.47 -0.18,-0.92 -0.5,-1.25 -0.32,-0.33 -0.75,-0.52 -1.2,-0.52l-6.81 0 0 7.09c0,0.47 0.18,0.92 0.5,1.25 0.32,0.33 0.75,0.52 1.2,0.52l6.81 0 0 -7.09z"/>
   <path class="fil0" d="M56.84 0l0 44.11 7.41 0 0 -44.11 -7.41 0zm43.92 31.31c1.16,-12.81 -5.16,-19.25 -15.26,-19.25 -9.81,0 -16.06,6.82 -16.06,16.28 0,9.96 6.19,16.6 16.61,16.6 4.6,0 9.81,-1.64 12.99,-5.05l-4.78 -4.86c-1.71,1.83 -5.33,2.9 -8.09,2.9 -5.27,0 -8.52,-2.78 -9.01,-6.64l23.6 0.02zm-23.47 -6.37c1.1,-4.04 4.41,-6.06 8.46,-6.06 4.29,0 7.35,2.02 7.85,6.06l-16.3 0zm58.96 19.18l0 -16.34c0,-9.78 -5.7,-15.27 -12.81,-15.27 -3.8,0 -6.86,1.58 -9.93,4.67l-0.49 -4.23 -6.68 0 0 31.18 7.41 0 0 -15.91c0,-4.73 3.13,-8.71 7.74,-8.71 4.78,0 7.3,3.6 7.3,8.33l0 16.28 7.46 0zm21.07 -24.68c4.72,0 8.76,3.65 8.76,9.09 0,5.62 -4.05,9.15 -8.76,9.15 -4.78,0 -8.58,-3.72 -8.58,-9.15 0,-5.63 3.8,-9.09 8.58,-9.09zm9.26 -19.44l0 17.23c-1.78,-3.22 -6.74,-4.98 -9.93,-4.98 -8.83,0 -15.38,5.55 -15.38,16.28 0,10.22 6.68,16.28 15.57,16.28 3.68,0 7.41,-1.26 9.74,-4.98l0.49 4.29 6.99 0 0 -44.13 -7.48 0zm37.89 16.23c-3.49,-3.16 -7.05,-4.1 -11.77,-4.1 -5.51,0 -12.75,2.53 -12.75,9.72 0,7.07 6.81,9.21 12.51,9.66 4.29,0.25 6.01,1.14 6.01,3.28 0,2.27 -2.64,3.79 -5.45,3.72 -3.37,-0.06 -8.27,-1.89 -10.42,-4.35l-3.67 5.49c4.41,4.73 9.19,5.55 13.98,5.55 8.64,0 12.99,-4.73 12.99,-10.22 0,-8.27 -7.23,-9.59 -12.93,-9.96 -3.87,-0.25 -5.64,-1.39 -5.64,-3.41 0,-1.96 1.96,-3.09 5.52,-3.09 2.88,0 5.33,0.69 7.48,2.78l4.16 -5.06zm20.79 21.2c-5.09,0 -8.58,-3.98 -8.58,-8.84 0,-4.85 3.19,-8.84 8.58,-8.84 5.39,0 8.58,3.98 8.58,8.84 0,4.85 -3.49,8.84 -8.58,8.84zm16.73 19.69l0 -44.11 -6.98 0 -0.49 4.29c-2.33,-3.47 -6.37,-4.98 -9.81,-4.98 -9.32,0 -15.5,7.13 -15.5,16.28 0,9.09 5.58,16.28 15.26,16.28 3.19,0 7.91,-1 10.05,-4.42l0 16.66 7.47 -0zm6.56 -44.11l0 31.11 7.48 0 0 -16.41c0,-5.74 3.62,-7.89 7.54,-7.89 2.45,0 3.87,0.69 5.39,2.02l3.37 -6.69c-1.66,-1.7 -4.66,-2.97 -7.79,-2.97 -3.07,0 -6.19,0.57 -8.52,4.42l-0.55 -3.6 -6.93 0z"/>
  </g>
 </g>
</svg>
