<?xml version="1.0" encoding="UTF-8"?>
<!DOCTYPE svg PUBLIC "-//W3C//DTD SVG 1.1//EN" "http://www.w3.org/Graphics/SVG/1.1/DTD/svg11.dtd">
<!-- Creator: CorelDRAW -->
<svg xmlns="http://www.w3.org/2000/svg" xml:space="preserve" width="1.26744in" height="0.188437in" version="1.1" style="shape-rendering:geometricPrecision; text-rendering:geometricPrecision; image-rendering:optimizeQuality; fill-rule:evenodd; clip-rule:evenodd"
viewBox="0 0 479.38 71.27"
 xmlns:xlink="http://www.w3.org/1999/xlink"
 xmlns:xodm="http://www.corel.com/coreldraw/odm/2003">
 <defs>
  <style type="text/css">
   <![CDATA[
    .fil0 {fill:black;fill-rule:nonzero}
   ]]>
  </style>
 </defs>
 <g id="Layer_x0020_1">
  <metadata id="CorelCorpID_0Corel-Layer"/>
  <g id="mono_x0020_svg_x0020_logo.svg">
   <path class="fil0" d="M232.85 0.02c-5.45,-0.09 -10.75,1.72 -15.01,5.12 -4.49,3.71 -7.6,8.83 -8.84,14.52 -0.94,-13.09 -7.25,-19.64 -18.94,-19.64 -5.26,-0.12 -10.38,1.64 -14.45,4.98 -4.17,3.57 -7.04,8.43 -8.13,13.82l0 -0.98c0.05,-3.85 -0.53,-7.69 -1.69,-11.36 -0.39,-1.64 -0.96,-3.24 -1.68,-4.77l-14.17 0 0 68.03 17.82 0 0 -36.76c0.09,-6.17 1.5,-10.94 4.21,-14.31 1.32,-1.65 3.01,-2.97 4.94,-3.85 1.93,-0.88 4.03,-1.29 6.15,-1.2 3.55,-0 6.05,0.86 7.5,2.6 1.45,1.73 2.17,4.61 2.17,8.63l0 44.89 17.82 0 0 -36.75c0.09,-6.17 1.47,-10.94 4.14,-14.31 1.33,-1.66 3.03,-2.99 4.97,-3.87 1.94,-0.88 4.06,-1.28 6.18,-1.18 3.55,-0 6.05,0.86 7.5,2.6 1.45,1.73 2.17,4.61 2.17,8.63l0 44.89 17.82 0 0 -45.74c0.01,-7.95 -1.82,-13.93 -5.47,-17.95 -3.65,-4.02 -8.66,-6.03 -15.01,-6.03z"/>
   <path class="fil0" d="M296 0.03c-10.1,-0.01 -18.3,3.1 -24.61,9.32 -6.31,6.22 -9.47,14.66 -9.47,25.32l0 0.28c0.01,11.97 3.28,21.02 9.83,27.14 6.72,5.92 15.37,9.19 24.33,9.19 8.96,0 17.6,-3.26 24.33,-9.18 6.55,-6.12 9.82,-15.22 9.82,-27.28l0 -0.28c0,-10.66 -3.17,-19.08 -9.53,-25.25 -6.36,-6.17 -14.59,-9.26 -24.69,-9.26zm16.14 36.88c-0,15.15 -5.38,22.72 -16.13,22.72l0 0c-10.67,0 -16,-7.57 -15.99,-22.72l0 -5.05c0,-6.36 1.43,-11.27 4.28,-14.73 1.42,-1.71 3.21,-3.07 5.24,-3.97 2.03,-0.9 4.25,-1.32 6.47,-1.22 2.23,-0.1 4.45,0.32 6.5,1.22 2.04,0.9 3.85,2.26 5.29,3.97 2.9,3.47 4.35,8.37 4.35,14.73l0 5.05z"/>
   <path class="fil0" d="M380.61 0.01c-5.63,-0.18 -11.15,1.63 -15.57,5.12 -4.31,3.59 -7.24,8.58 -8.27,14.1l0 -1.4c0.05,-3.85 -0.52,-7.69 -1.68,-11.36 -0.4,-1.64 -0.97,-3.24 -1.69,-4.77l-14.19 0 0 68.03 17.84 0 0 -36.75c-0,-6.08 1.52,-10.83 4.56,-14.24 1.48,-1.68 3.31,-3 5.35,-3.89 2.05,-0.88 4.27,-1.31 6.5,-1.23 7.57,0 11.36,3.74 11.36,11.22l0 44.89 17.68 0 0 -45.74c0,-7.95 -1.91,-13.93 -5.75,-17.96 -3.84,-4.02 -9.21,-6.03 -16.13,-6.03z"/>
   <path class="fil0" d="M469.84 9.28c-6.36,-6.17 -14.59,-9.26 -24.68,-9.26 -10.1,-0.01 -18.31,3.1 -24.62,9.32 -6.31,6.22 -9.47,14.66 -9.47,25.32l0 0.28c0,11.97 3.28,21.02 9.82,27.14 6.73,5.92 15.38,9.19 24.34,9.19 8.96,0 17.61,-3.27 24.34,-9.19 6.55,-6.12 9.82,-15.22 9.82,-27.28l0 -0.28c0,-10.65 -3.18,-19.07 -9.54,-25.24zm-8.55 27.62c-0,15.15 -5.38,22.72 -16.13,22.72l0 0c-10.66,0 -15.99,-7.57 -15.99,-22.72l0 -5.05c0,-6.36 1.43,-11.27 4.28,-14.73 1.42,-1.71 3.21,-3.07 5.25,-3.97 2.03,-0.9 4.25,-1.32 6.47,-1.22 2.23,-0.1 4.45,0.32 6.5,1.22 2.05,0.9 3.85,2.26 5.28,3.97 2.9,3.47 4.35,8.37 4.35,14.73l0 5.05z"/>
   <path class="fil0" d="M89 0.49c-0.37,-0.27 -0.81,-0.43 -1.26,-0.47 -0.46,-0.04 -0.91,0.05 -1.32,0.26 -0.41,0.21 -0.75,0.52 -0.99,0.91 -0.24,0.39 -0.36,0.84 -0.36,1.29l0 26.31 -38.6 -28.32c-0.37,-0.27 -0.81,-0.43 -1.26,-0.47 -0.46,-0.04 -0.91,0.05 -1.32,0.26 -0.41,0.21 -0.75,0.52 -0.99,0.91 -0.24,0.39 -0.36,0.84 -0.36,1.29l0 26.31 -38.61 -28.32c-0.37,-0.27 -0.8,-0.43 -1.26,-0.47 -0.45,-0.04 -0.91,0.05 -1.32,0.26 -0.41,0.21 -0.75,0.52 -0.99,0.91 -0.24,0.39 -0.36,0.84 -0.36,1.29l0 37.18c0,0.39 0.09,0.77 0.27,1.12 0.18,0.35 0.43,0.65 0.75,0.88l39.71 29.13c0.37,0.27 0.81,0.43 1.26,0.47 0.46,0.04 0.91,-0.06 1.32,-0.26 0.41,-0.21 0.75,-0.52 0.99,-0.91 0.24,-0.39 0.36,-0.84 0.36,-1.29l0 -26.31 38.61 28.32c0.37,0.27 0.8,0.43 1.26,0.47 0.46,0.04 0.91,-0.06 1.32,-0.26 0.41,-0.21 0.75,-0.52 0.99,-0.91 0.24,-0.39 0.36,-0.84 0.36,-1.29l0 -26.32 38.61 28.32c0.37,0.27 0.8,0.43 1.26,0.47 0.46,0.04 0.91,-0.06 1.32,-0.26 0.41,-0.21 0.75,-0.52 0.99,-0.91 0.24,-0.39 0.36,-0.84 0.36,-1.29l0 -37.18c-0,-0.39 -0.09,-0.77 -0.27,-1.12 -0.18,-0.35 -0.43,-0.65 -0.75,-0.88l-39.71 -29.13z"/>
  </g>
 </g>
</svg>
