<?xml version="1.0" encoding="UTF-8"?>
<!DOCTYPE svg PUBLIC "-//W3C//DTD SVG 1.1//EN" "http://www.w3.org/Graphics/SVG/1.1/DTD/svg11.dtd">
<!-- Creator: CorelDRAW -->
<svg xmlns="http://www.w3.org/2000/svg" xml:space="preserve" width="0.77in" height="0.275in" version="1.1" style="shape-rendering:geometricPrecision; text-rendering:geometricPrecision; image-rendering:optimizeQuality; fill-rule:evenodd; clip-rule:evenodd"
viewBox="0 0 691.97 247.13"
 xmlns:xlink="http://www.w3.org/1999/xlink"
 xmlns:xodm="http://www.corel.com/coreldraw/odm/2003">
 <defs>
  <style type="text/css">
   <![CDATA[
    .fil2 {fill:none}
    .fil0 {fill:#009E74;fill-rule:nonzero}
    .fil1 {fill:#222C3B;fill-rule:nonzero}
   ]]>
  </style>
   <clipPath id="id0">
    <path d="M-0 247.13l691.97 0 0 -247.13 -691.97 0 0 247.13z"/>
   </clipPath>
 </defs>
 <g id="Layer_x0020_1">
  <metadata id="CorelCorpID_0Corel-Layer"/>
  <g>
  </g>
  <g style="clip-path:url(#id0)">
   <g id="_2339239532192">
    <path class="fil0" d="M158.98 152.83c11.91,-16.51 18.6,-36.27 18.6,-56.78 0,-0.75 0,-1.5 0,-2.25 -0.74,-25.26 -10.91,-48.78 -28.77,-66.54 -17.86,-17.51 -41.42,-27.26 -66.47,-27.26 -23.06,0 -45.14,8.51 -62.5,23.76 -3.72,3.25 -3.97,9 -0.5,12.51l14.88 15.01 -23.32 23.51c-3.22,3.25 -3.22,8.75 0,12l7.69 7.76c-12.15,16.26 -18.6,36.27 -18.6,56.78 0,25.26 9.67,49.03 27.03,67.04 17.36,18.01 40.92,28.27 65.73,28.76 0.74,0 1.49,0 2.48,0 23.07,0 45.14,-8.51 62.5,-23.76 3.72,-3.25 3.97,-9 0.5,-12.51l-14.88 -15.01 23.32 -23.51c3.22,-3.25 3.22,-8.75 0,-12l-7.69 -7.5zm-33.73 49.27l14.14 14.26c-12.9,9 -28.27,13.76 -44.15,13.76 -0.5,0 -1.24,0 -1.98,0 -20.59,-0.5 -39.69,-9 -54.07,-23.76 -14.39,-14.76 -22.32,-34.52 -22.32,-55.28 0,-16.01 4.71,-31.52 13.64,-44.52l65.23 65.78 7.94 8.01 4.46 4.5 11.91 -12 -4.46 -4.5 -86.06 -87.05 -0.5 -0.5 23.32 -23.51c3.22,-3.25 3.22,-8.75 0,-12.01l-14.14 -14.26c12.9,-9 28.28,-13.76 44.15,-13.76 20.59,0 39.93,8.01 54.81,22.51 14.63,14.51 23.07,33.77 23.56,54.53 0,0.5 0,1.25 0,1.75 0,16.01 -4.71,31.52 -13.64,44.52l-35.47 -35.52 -37.95 -38.27 -4.46 -4.5 -12.15 12 49.85 50.28 41.67 42.02 -23.32 23.51c-3.22,3.25 -3.22,8.5 0,12z"/>
    <path class="fil1" d="M246.53 123.82c0,-44.78 28.27,-74.54 70.68,-74.54 42.41,0 70.69,29.77 70.69,74.54 0,44.77 -28.27,74.54 -70.69,74.54 -42.41,0 -70.68,-30.02 -70.68,-74.54zm108.88 0c0,-28.77 -15.38,-47.78 -38.2,-47.78 -22.82,0 -38.19,19.01 -38.19,47.78 0,28.76 15.38,47.77 38.19,47.77 22.82,0 38.2,-19.26 38.2,-47.77z"/>
    <path class="fil1" d="M512.15 196.1l-34.23 0 -35.96 -41.27 -7.94 8.25 0 33.02 -30.26 0 0 -145.08 30.01 0 0 38.77c0,31.27 -0.5,36.77 -0.5,36.77l0.5 0 34.72 -36.77 36.95 0 -45.63 46.77 52.33 59.53z"/>
    <path class="fil1" d="M588.79 89.8l0 30.52 -0.75 0c0,0 -1.98,-0.75 -8.68,-0.75 -17.86,0 -30.26,11.01 -30.26,33.52l0 43.03 -30.26 0 0 -106.31 30.01 0 0 19.76 0.5 0c4.46,-10.26 16.12,-20.76 33.48,-20.76 2.73,0.25 4.22,0.25 5.95,1z"/>
    <path class="fil1" d="M688.74 174.59l0 -45.52c0,-24.76 -17.11,-41.02 -47.37,-41.02 -27.78,0 -46.63,15.76 -46.63,36.77l30.26 0c0,-9 5.95,-15 17.11,-15 10.42,0 16.62,6 16.62,21.01l-18.85 1.25c-29.02,2.25 -48.12,10.76 -48.12,34.52 0,14.01 7.94,24.51 20.59,29.02 4.46,1.5 9.18,2.5 14.63,2.5 5.46,0 11.16,-0.75 16.37,-2.5 7.19,-2.5 13.39,-6.75 17.36,-13.51l0.5 0c0,5.25 1.49,11.01 2.73,13.51l28.02 0 0 -1.25c-2.48,-3 -3.22,-3.75 -3.22,-19.76zm-30.01 -22.26c0,14.51 -8.43,24.01 -21.08,24.01 -8.68,0 -14.38,-5 -14.38,-12.26 0,-7.25 5.95,-11.51 16.12,-12.51l19.35 -1.75 0 2.5z"/>
   </g>
  </g>
  <polygon class="fil2" points="-0,247.13 691.97,247.13 691.97,0 -0,0 "/>
 </g>
</svg>
