<?xml version="1.0" encoding="UTF-8"?>
<!DOCTYPE svg PUBLIC "-//W3C//DTD SVG 1.1//EN" "http://www.w3.org/Graphics/SVG/1.1/DTD/svg11.dtd">
<!-- Creator: CorelDRAW -->
<svg xmlns="http://www.w3.org/2000/svg" xml:space="preserve" width="1.54352in" height="0.275in" version="1.1" style="shape-rendering:geometricPrecision; text-rendering:geometricPrecision; image-rendering:optimizeQuality; fill-rule:evenodd; clip-rule:evenodd"
viewBox="0 0 720.95 128.45"
 xmlns:xlink="http://www.w3.org/1999/xlink"
 xmlns:xodm="http://www.corel.com/coreldraw/odm/2003">
 <defs>
  <style type="text/css">
   <![CDATA[
    .fil0 {fill:#00C3F7;fill-rule:nonzero}
    .fil1 {fill:#011B33;fill-rule:nonzero}
   ]]>
  </style>
 </defs>
 <g id="Layer_x0020_1">
  <metadata id="CorelCorpID_0Corel-Layer"/>
  <g id="paystack-logo-vector.svg">
   <path class="fil0" d="M102.61 12.26l-96.61 0c-3.24,0 -6.01,2.76 -6.01,6.13l0 10.93c0,3.37 2.76,6.13 6.01,6.13l96.61 0c3.36,0 6.01,-2.76 6.13,-6.13l0 -10.81c0,-3.48 -2.76,-6.25 -6.13,-6.25l0 0zm0 60.68l-96.61 0c-1.56,0 -3.12,0.6 -4.2,1.8 -1.2,1.2 -1.8,2.64 -1.8,4.33l0 10.93c0,3.36 2.76,6.13 6.01,6.13l96.61 0c3.36,0 6.01,-2.64 6.13,-6.13l0 -10.93c-0.12,-3.48 -2.76,-6.13 -6.13,-6.13l0 0zm-42.18 30.28l-54.43 0c-1.56,0 -3.12,0.6 -4.2,1.8 -1.08,1.2 -1.8,2.64 -1.8,4.33l0 10.93c0,3.36 2.76,6.13 6.01,6.13l54.31 0c3.37,0 6.01,-2.76 6.01,-6.01l0 -10.93c0.12,-3.6 -2.52,-6.37 -5.89,-6.25l0 0zm48.3 -60.68l-102.73 0c-1.56,0 -3.12,0.6 -4.2,1.8 -1.08,1.2 -1.8,2.64 -1.8,4.33l0 10.93c0,3.37 2.76,6.13 6.01,6.13l102.61 0c3.36,0 6.01,-2.76 6.01,-6.13l0 -10.93c0.12,-3.36 -2.64,-6.01 -5.89,-6.13l0 0zm0 0z"/>
   <path class="fil1" d="M221.09 36.77c-3,-3.12 -6.49,-5.53 -10.45,-7.21 -3.96,-1.68 -8.17,-2.52 -12.5,-2.52 -4.21,-0.12 -8.29,0.84 -12.14,2.64 -2.52,1.2 -4.81,2.89 -6.73,4.93l0 -1.92c0,-0.96 -0.36,-1.92 -0.96,-2.64 -0.6,-0.72 -1.56,-1.2 -2.64,-1.2l-13.34 0c-0.96,0 -1.92,0.36 -2.52,1.2 -0.72,0.72 -1.08,1.68 -0.96,2.64l0 89.88c0,0.96 0.36,1.92 0.96,2.64 0.72,0.72 1.56,1.08 2.52,1.08l13.7 0c0.96,0 1.8,-0.36 2.52,-1.08 0.72,-0.6 1.2,-1.56 1.08,-2.64l0 -30.76c1.92,2.16 4.45,3.72 7.21,4.69 3.6,1.32 7.33,2.04 11.17,2.04 4.33,0 8.65,-0.84 12.62,-2.52 3.96,-1.68 7.57,-4.09 10.57,-7.21 3.12,-3.24 5.53,-7.09 7.21,-11.29 1.92,-4.69 2.76,-9.73 2.64,-14.78 0.12,-5.05 -0.84,-10.09 -2.64,-14.9 -1.8,-3.96 -4.2,-7.81 -7.33,-11.06l0 0zm-12.26 32.56c-0.72,1.92 -1.8,3.6 -3.24,5.17 -2.76,3 -6.73,4.69 -10.81,4.69 -2.04,0 -4.09,-0.36 -6.01,-1.32 -1.8,-0.84 -3.48,-1.92 -4.93,-3.36 -1.44,-1.44 -2.52,-3.25 -3.24,-5.17 -1.56,-4.09 -1.56,-8.53 0,-12.62 0.72,-1.92 1.92,-3.6 3.24,-5.05 1.44,-1.44 3.12,-2.64 4.93,-3.48 1.92,-0.84 3.96,-1.32 6.01,-1.32 2.16,0 4.09,0.36 6.13,1.32 1.8,0.84 3.48,1.92 4.81,3.36 1.44,1.44 2.4,3.12 3.24,5.05 1.44,4.21 1.32,8.65 -0.12,12.74l0 0zm95.65 -40.37l-13.58 0c-0.96,0 -1.92,0.36 -2.52,1.08 -0.72,0.72 -1.08,1.68 -1.08,2.76l0 1.68c-1.68,-2.04 -3.85,-3.61 -6.13,-4.69 -3.73,-1.8 -7.81,-2.64 -11.9,-2.64 -8.77,0 -17.06,3.48 -23.31,9.61 -3.25,3.24 -5.77,7.09 -7.45,11.29 -1.92,4.69 -2.89,9.73 -2.76,14.9 -0.12,5.05 0.84,10.09 2.76,14.9 1.8,4.21 4.2,8.05 7.45,11.29 6.13,6.25 14.54,9.73 23.19,9.73 4.08,0.12 8.17,-0.84 11.89,-2.64 2.28,-1.2 4.57,-2.76 6.25,-4.69l0 1.8c0,0.96 0.36,1.92 1.08,2.64 0.72,0.6 1.56,1.08 2.52,1.08l13.58 0c0.96,0 1.92,-0.36 2.52,-1.08 0.72,-0.72 1.08,-1.68 1.08,-2.64l0 -60.44c0,-0.96 -0.36,-1.92 -0.96,-2.64 -0.72,-0.84 -1.68,-1.32 -2.64,-1.32l0 0zm-18.39 40.37c-0.72,1.92 -1.8,3.6 -3.24,5.17 -1.44,1.44 -3,2.64 -4.81,3.48 -3.85,1.8 -8.29,1.8 -12.14,0 -1.8,-0.84 -3.48,-2.04 -4.93,-3.48 -1.44,-1.44 -2.52,-3.24 -3.24,-5.17 -1.44,-4.09 -1.44,-8.53 0,-12.62 0.72,-1.92 1.8,-3.48 3.24,-5.05 1.44,-1.44 3,-2.64 4.93,-3.48 3.85,-1.8 8.29,-1.8 12.02,0 1.8,0.84 3.48,1.92 4.81,3.36 1.32,1.44 2.4,3.12 3.24,5.05 1.68,4.21 1.68,8.65 0.12,12.74l0 0zm153.68 -8.17c-1.92,-1.68 -4.21,-3.12 -6.61,-4.09 -2.52,-1.08 -5.29,-1.8 -7.93,-2.4l-10.33 -2.04c-2.64,-0.48 -4.57,-1.2 -5.53,-2.04 -0.84,-0.6 -1.44,-1.56 -1.44,-2.64 0,-1.08 0.6,-2.04 1.92,-2.88 1.8,-0.96 3.72,-1.44 5.77,-1.32 2.64,0 5.29,0.6 7.69,1.56 2.4,1.08 4.69,2.16 6.85,3.6 3,1.92 5.65,1.56 7.45,-0.6l4.93 -5.65c0.96,-0.96 1.44,-2.16 1.56,-3.48 -0.12,-1.44 -0.84,-2.64 -1.92,-3.61 -2.04,-1.8 -5.41,-3.72 -9.85,-5.65 -4.45,-1.92 -10.09,-2.88 -16.7,-2.88 -4.08,-0.12 -8.05,0.48 -11.9,1.68 -3.24,1.08 -6.37,2.64 -9.13,4.69 -2.52,1.92 -4.45,4.33 -5.89,7.21 -1.32,2.76 -2.04,5.77 -2.04,8.77 0,5.65 1.68,10.21 5.05,13.58 3.37,3.37 7.81,5.65 13.34,6.73l10.81 2.4c2.28,0.36 4.69,1.08 6.85,2.16 1.2,0.48 1.92,1.68 1.92,3 0,1.2 -0.6,2.28 -1.92,3.24 -1.32,0.96 -3.48,1.56 -6.37,1.56 -2.88,0 -5.89,-0.6 -8.53,-1.92 -2.52,-1.2 -4.81,-2.76 -6.97,-4.57 -0.96,-0.72 -1.92,-1.32 -3.12,-1.8 -1.2,-0.36 -2.76,0 -4.33,1.32l-5.89 4.45c-1.68,1.2 -2.52,3.24 -2.04,5.17 0.36,2.04 1.92,3.96 4.93,6.25 7.45,5.05 16.34,7.69 25.35,7.45 4.2,0 8.41,-0.48 12.38,-1.68 3.48,-1.08 6.73,-2.64 9.61,-4.81 2.64,-1.92 4.81,-4.45 6.25,-7.45 1.44,-2.88 2.16,-6.01 2.16,-9.25 0.12,-2.89 -0.48,-5.77 -1.68,-8.41 -1.2,-1.93 -2.76,-3.97 -4.69,-5.65l0 0zm59.36 16.46c-0.6,-1.08 -1.68,-1.8 -3,-2.04 -1.2,0 -2.52,0.36 -3.48,1.08 -1.68,1.08 -3.6,1.68 -5.53,1.8 -0.6,0 -1.32,-0.12 -1.92,-0.24 -0.72,-0.12 -1.32,-0.48 -1.8,-0.96 -0.6,-0.6 -1.08,-1.32 -1.44,-2.04 -0.48,-1.2 -0.72,-2.4 -0.6,-3.61l0 -24.63 17.54 0c1.08,0 2.04,-0.48 2.76,-1.2 0.72,-0.72 1.2,-1.56 1.2,-2.64l0 -10.45c0,-1.08 -0.36,-2.04 -1.2,-2.64 -0.72,-0.72 -1.68,-1.08 -2.64,-1.08l-17.66 0 0 -16.82c0,-0.96 -0.36,-2.04 -1.08,-2.64 -0.72,-0.6 -1.56,-0.96 -2.52,-1.08l-13.7 0c-0.96,0 -1.92,0.36 -2.64,1.08 -0.72,0.72 -1.2,1.68 -1.2,2.64l0 16.82 -7.81 0c-0.96,0 -1.92,0.36 -2.64,1.2 -0.6,0.72 -0.96,1.68 -0.96,2.64l0 10.45c0,0.96 0.36,1.92 0.96,2.64 0.6,0.84 1.56,1.2 2.64,1.2l7.81 0 0 29.32c-0.12,3.48 0.6,6.97 2.04,10.09 1.32,2.64 3,4.93 5.29,6.85 2.16,1.8 4.69,3.12 7.45,3.85 2.76,0.84 5.65,1.32 8.53,1.32 3.73,0 7.57,-0.6 11.18,-1.8 3.36,-1.08 6.37,-3 8.77,-5.53 1.56,-1.56 1.68,-4.09 0.48,-5.89l-4.81 -7.69zm74.26 -48.66l-13.58 0c-0.96,0 -1.8,0.36 -2.52,1.08 -0.72,0.72 -1.08,1.68 -1.08,2.76l0 1.68c-1.68,-2.04 -3.72,-3.61 -6.13,-4.69 -3.73,-1.8 -7.81,-2.64 -11.9,-2.64 -8.77,0 -17.06,3.48 -23.31,9.61 -3.24,3.24 -5.77,7.09 -7.45,11.29 -1.92,4.69 -2.88,9.73 -2.76,14.78 -0.12,5.05 0.84,10.09 2.76,14.9 1.68,4.21 4.33,8.05 7.45,11.3 6.13,6.25 14.42,9.73 23.19,9.73 4.09,0.12 8.17,-0.84 11.9,-2.52 2.4,-1.2 4.57,-2.76 6.25,-4.69l0 1.8c0,0.96 0.36,1.92 1.08,2.52 0.72,0.72 1.56,1.08 2.52,1.08l13.58 0c2.04,0 3.6,-1.56 3.6,-3.6l0 -60.44c0,-0.96 -0.36,-1.92 -0.96,-2.64 -0.6,-0.84 -1.56,-1.32 -2.64,-1.32l0 0zm-18.26 40.37c-0.72,1.92 -1.8,3.6 -3.24,5.17 -1.44,1.44 -3,2.64 -4.81,3.48 -1.92,0.84 -3.97,1.32 -6.13,1.32 -2.16,0 -4.08,-0.48 -6.01,-1.32 -1.8,-0.84 -3.48,-2.04 -4.93,-3.48 -1.44,-1.44 -2.52,-3.24 -3.12,-5.17 -1.44,-4.09 -1.44,-8.53 0,-12.62 0.72,-1.92 1.8,-3.6 3.12,-5.05 1.44,-1.44 3.12,-2.64 4.93,-3.48 1.92,-0.84 3.96,-1.32 6.01,-1.32 2.04,0 4.09,0.36 6.13,1.32 1.8,0.84 3.36,1.92 4.81,3.36 1.44,1.44 2.52,3.12 3.24,5.05 1.56,4.08 1.56,8.65 0,12.74l0 0zm92.76 7.33l-7.81 -6.01c-1.44,-1.2 -2.89,-1.56 -4.09,-1.08 -1.08,0.48 -2.04,1.2 -2.88,2.04 -1.68,2.04 -3.73,3.85 -5.89,5.41 -2.4,1.32 -4.93,2.04 -7.57,1.8 -3.12,0 -6.01,-0.84 -8.53,-2.64 -2.52,-1.8 -4.45,-4.2 -5.41,-7.21 -0.72,-2.04 -1.08,-4.09 -1.08,-6.13 0,-2.16 0.36,-4.21 1.08,-6.37 0.72,-1.92 1.68,-3.6 3.12,-5.05 1.44,-1.44 3,-2.64 4.81,-3.37 1.92,-0.84 3.97,-1.32 6.13,-1.32 2.64,-0.12 5.29,0.6 7.57,1.92 2.28,1.44 4.21,3.24 5.89,5.41 0.72,0.84 1.68,1.56 2.76,2.04 1.2,0.48 2.64,0.12 4.09,-1.08l7.81 -5.89c0.96,-0.6 1.68,-1.56 2.04,-2.64 0.48,-1.2 0.36,-2.52 -0.36,-3.6 -3,-4.69 -7.09,-8.53 -12.02,-11.3 -5.17,-2.88 -11.29,-4.44 -18.14,-4.44 -4.81,0 -9.61,0.96 -14.18,2.76 -4.33,1.8 -8.17,4.33 -11.42,7.57 -3.24,3.24 -5.89,7.09 -7.69,11.41 -3.73,9.01 -3.73,19.11 0,28.12 1.8,4.21 4.33,8.17 7.69,11.29 6.85,6.73 15.98,10.33 25.59,10.33 6.85,0 12.98,-1.56 18.14,-4.45 4.93,-2.76 9.13,-6.61 12.14,-11.41 0.6,-1.08 0.72,-2.4 0.36,-3.48 -0.48,-0.96 -1.2,-1.92 -2.16,-2.64l0 0zm72.33 14.06l-21.51 -31.48 18.38 -24.27c0.84,-1.08 1.2,-2.64 0.72,-3.96 -0.36,-0.96 -1.2,-1.92 -3.48,-1.92l-14.54 0c-0.84,0 -1.68,0.24 -2.4,0.6 -0.96,0.48 -1.68,1.2 -2.16,2.04l-14.66 20.55 -3.48 -0 0 -48.54c0,-0.96 -0.36,-1.92 -1.08,-2.64 -0.72,-0.72 -1.56,-1.08 -2.52,-1.08l-13.58 0c-0.96,0 -1.92,0.36 -2.64,1.08 -0.72,0.72 -1.08,1.56 -1.08,2.64l0 89.52c0,1.08 0.36,1.92 1.08,2.64 0.72,0.72 1.68,1.08 2.64,1.08l13.58 0c0.96,0 1.92,-0.36 2.52,-1.08 0.72,-0.72 1.08,-1.68 1.08,-2.64l0 -23.67 3.85 0 15.98 24.51c0.96,1.8 2.76,2.88 4.69,2.88l15.26 0c2.28,0 3.24,-1.08 3.72,-2.04 0.6,-1.44 0.48,-3 -0.36,-4.2l0 0zm-338.6 -61.76l-15.26 0c-1.2,0 -2.28,0.36 -3.12,1.2 -0.72,0.72 -1.2,1.56 -1.44,2.52l-11.29 41.81 -2.76 0 -12.02 -41.81c-0.24,-0.84 -0.6,-1.68 -1.2,-2.52 -0.72,-0.84 -1.68,-1.32 -2.76,-1.32l-15.5 0c-2.04,0 -3.24,0.6 -3.85,2.04 -0.36,1.2 -0.36,2.52 0,3.72l19.23 58.88c0.36,0.84 0.72,1.8 1.44,2.4 0.72,0.72 1.8,1.08 2.88,1.08l8.17 0 -0.72 1.92 -1.8 5.41c-0.6,1.68 -1.56,3.12 -3,4.21 -1.32,0.96 -2.88,1.56 -4.57,1.44 -1.44,0 -2.76,-0.36 -4.08,-0.84 -1.32,-0.6 -2.52,-1.32 -3.61,-2.16 -0.96,-0.72 -2.16,-1.08 -3.48,-1.08l-0.12 0c-1.44,0.12 -2.76,0.84 -3.48,2.16l-4.81 7.09c-1.92,3.12 -0.84,5.05 0.36,6.13 2.64,2.4 5.65,4.21 9.01,5.29 3.72,1.32 7.57,1.92 11.41,1.92 6.97,0 12.74,-1.92 17.18,-5.65 4.57,-4.09 8.05,-9.37 9.73,-15.38l22.35 -72.82c0.48,-1.32 0.6,-2.64 0.12,-3.85 -0.12,-0.84 -0.96,-1.8 -3,-1.8l0 0zm0 0z"/>
  </g>
 </g>
</svg>
