<?xml version="1.0" encoding="UTF-8"?>
<!DOCTYPE svg PUBLIC "-//W3C//DTD SVG 1.1//EN" "http://www.w3.org/Graphics/SVG/1.1/DTD/svg11.dtd">
<!-- Creator: CorelDRAW -->
<svg xmlns="http://www.w3.org/2000/svg" xml:space="preserve" width="0.892346in" height="0.275in" version="1.1" style="shape-rendering:geometricPrecision; text-rendering:geometricPrecision; image-rendering:optimizeQuality; fill-rule:evenodd; clip-rule:evenodd"
viewBox="0 0 122.52 37.76"
 xmlns:xlink="http://www.w3.org/1999/xlink"
 xmlns:xodm="http://www.corel.com/coreldraw/odm/2003">
 <defs>
  <style type="text/css">
   <![CDATA[
    .fil1 {fill:#666666}
    .fil3 {fill:#676767}
    .fil0 {fill:#DB1D1D}
    .fil2 {fill:#FFFEFE}
   ]]>
  </style>
 </defs>
 <g id="Layer_x0020_1">
  <metadata id="CorelCorpID_0Corel-Layer"/>
  <g id="_2547570918768">
   <path class="fil0" d="M19.72 11.93c-0.27,-3.25 2.05,-5.71 4.92,-6 3.17,-0.32 5.72,2.07 5.99,4.89 0.31,3.2 -2.07,5.72 -4.89,6.01 -3.18,0.33 -5.79,-2.09 -6.03,-4.9l0 0zm-19.72 6.57c0,2.08 0.1,2.88 0.51,4.78 0.45,2.1 1.62,4.65 2.81,6.32 1.51,2.12 3.62,4.21 5.89,5.51 0.52,0.29 0.97,0.53 1.53,0.81 3.96,2 8.49,2.29 12.79,1.29 1.49,-0.35 3.49,-1.21 4.81,-1.99 0.28,-0.17 0.44,-0.25 0.71,-0.42 0.75,-0.5 1.24,-0.81 1.96,-1.44 0.24,-0.21 0.37,-0.29 0.6,-0.53 0.21,-0.21 0.35,-0.35 0.58,-0.56l0.26 -0.27c0.93,-1.02 0.96,-1.02 1.83,-2.17l0.9 -1.36c0.89,-1.54 1.51,-3 1.99,-4.8 1.11,-4.2 0.65,-9.01 -1.21,-12.89 -0.67,-1.4 -1.67,-2.97 -2.69,-4.11 -1.8,-2.02 -3.9,-3.83 -6.42,-4.9 -3.36,-1.43 -4.73,-1.76 -8.74,-1.76 -1.68,0 -4.1,0.49 -5.68,1.11 -2.88,1.13 -4.85,2.37 -6.98,4.5 -1.31,1.31 -2.5,2.91 -3.34,4.59 -1.21,2.43 -2.11,5.01 -2.11,8.3l0 0z"/>
   <path class="fil1" d="M116.94 29.9c-1.53,0 -2.49,-1.06 -2.49,-2.42 0,-1.06 -0.01,-1.59 0.68,-2.49 0.85,-1.12 2.92,-1.3 3.73,-0.11 0.96,1.42 0.68,5.02 -1.92,5.02l0 0zm-5.66 -2.87c0,1.39 0.04,2.33 0.93,3.53 1.6,2.14 5.36,2.86 7.12,0.52 0.11,-0.15 0.03,-0.04 0.1,-0.12 0,0.75 0.38,2.2 -0.58,3.19 -1.25,1.29 -4.41,0.93 -5.8,0.02 -0.24,-0.16 -0.46,-0.43 -0.71,-0.5 0,0.58 -0.09,1.4 0.04,1.92 0.35,1.31 2.27,2.16 3.73,2.16 1.65,0 3.25,-0.24 4.4,-1.26 2.59,-2.33 1.94,-4.38 1.94,-7.64 0,-1.8 0.11,-3.14 -0.42,-4.49 -1.56,-3.99 -7.04,-3.82 -9.42,-0.9 -0.66,0.81 -1.34,2.14 -1.34,3.57l0 0z"/>
   <path class="fil1" d="M43.26 22.87c0,1.22 0.25,1.96 1,2.7 2.24,2.23 6.78,1.35 6.78,3.57 0,1.58 -0.84,2.03 -2.41,2.12 -0.34,0.02 -0.29,0.07 -0.61,0.07 -0.94,0 -2.1,-0.36 -2.86,-0.69 -0.38,-0.16 -0.94,-0.57 -1.27,-0.85 -0.38,-0.32 -0.32,-0.19 -0.32,0.64 0,1.28 0.26,2.31 1.38,2.92 1.71,0.93 3.97,0.97 5.82,0.43 0.73,-0.21 1.24,-0.55 1.77,-0.94 1.87,-1.39 3.05,-6.12 -1.39,-7.65 -0.91,-0.31 -1.9,-0.44 -2.81,-0.73 -0.69,-0.22 -1.97,-0.67 -1.97,-1.58 0,-2.6 4.16,-2.23 5.75,-1.6 0.32,0.13 0.6,0.29 0.87,0.48 0.48,0.35 0.47,0.5 0.77,0.58 0,-0.68 0.08,-1.54 -0.09,-2.1 -0.88,-2.83 -6.61,-2.77 -8.65,-0.83l-0.31 0.29c-0.11,0.12 -0.22,0.23 -0.33,0.35 -0.59,0.66 -1.11,1.82 -1.11,2.81l0 0z"/>
   <path class="fil2" d="M19.72 11.93c0.23,2.81 2.85,5.23 6.03,4.9 2.82,-0.29 5.2,-2.81 4.89,-6.01 -0.28,-2.82 -2.83,-5.22 -5.99,-4.89 -2.87,0.29 -5.19,2.75 -4.92,6l0 0z"/>
   <path class="fil1" d="M68.17 26.88l-0.91 0c0,-1.6 0.91,-2.94 2.34,-2.94 1.29,0 2.49,0.21 2.49,1.89 0,1.11 -2.16,0.95 -2.67,1.02 -0.4,0.06 -0.84,0.03 -1.25,0.03zm-4.08 0.91c0,2.2 0.85,3.99 2.57,5.21 0.19,0.14 0.22,0.18 0.45,0.3 1.55,0.81 3.11,1.04 4.88,0.65 1.05,-0.24 1.99,-0.64 2.4,-1.68 0.19,-0.5 0.13,-1.26 0.13,-1.91 -0.28,0.07 -0.53,0.44 -1.47,0.8 -0.96,0.37 -1.81,0.33 -2.84,0.33 -0.73,0 -1.47,-0.38 -1.92,-0.72 -0.41,-0.31 -0.69,-0.7 -0.86,-1.18 -0.07,-0.2 -0.08,-0.35 -0.16,-0.52 2.43,0 7.7,0.38 7.7,-2.72 0,-1.87 -0.54,-3.06 -1.84,-4.05 -2.2,-1.66 -5.72,-1.24 -7.71,1.28 -0.75,0.95 -1.32,2.52 -1.32,4.2l0 0z"/>
   <path class="fil1" d="M98.67 26.12l0 5.96c0,0.99 1.05,1.74 1.89,1.74l1.13 0 0 -7.02c0,-1.37 0.79,-2.72 1.81,-2.72 1.1,0 2.22,0 2.67,1.56 0.44,1.52 -0,5.73 0.24,6.7 0.39,1.56 1.91,1.48 2.98,1.48l0 -7.32c0,-1.43 -0.52,-2.75 -1.45,-3.68 -0.88,-0.88 -2,-1.42 -3.7,-1.49 -1.56,-0.06 -3,0.51 -3.88,1.26 -0.79,0.67 -1.68,2.11 -1.68,3.53l0 0z"/>
   <path class="fil3" d="M56.17 22.04l0 7.25c0,5.36 5.3,5.17 6.66,4.09 0.7,-0.55 0.67,-1.43 0.67,-2.35 0,-0.33 -0.22,-0.19 -0.4,-0.11 -0.93,0.44 -3.83,0.88 -3.83,-1.48l0 -5.13c1.34,0 2.98,0.23 3.76,-0.47 0.58,-0.52 0.47,-1.45 0.47,-2.24l-4.23 0 0 -2.57c0,-0.48 -1.17,-0.14 -1.52,0.07 -0.33,0.2 -0.55,0.41 -0.79,0.72 -0.49,0.63 -0.79,1.16 -0.79,2.23l0 0z"/>
   <path class="fil1" d="M85.01 30.5c0,3.56 4.23,3.97 5.34,3.08 0.68,-0.54 0.55,-1.28 0.55,-2.17 -1.01,0 -2.21,0.17 -2.67,-0.73 -0.35,-0.67 -0.2,-5.42 -0.2,-6.37 0,-1.46 -0,-2.92 0,-4.38 0,-0.89 -0.04,-1.24 -0.44,-1.75 -0.61,-0.77 -1.71,-0.66 -2.58,-0.66l0 12.99 0 0z"/>
   <path class="fil1" d="M76.7 26.2l0 5.66c0,2.12 1.92,1.96 3.1,1.96l0 -7.1c0,-1.03 0.24,-1.88 1.1,-2.29 1.13,-0.54 2.52,0.15 2.9,0.18 0,-0.6 0.04,-1.22 -0.11,-1.7 -0.13,-0.43 -0.48,-0.85 -0.83,-1.05 -1.66,-0.96 -6.15,-0.35 -6.15,4.34l0 0z"/>
   <path class="fil3" d="M92.03 22.04l0 7.32c0,2.87 0.86,4.61 3.85,4.61 1.79,0 1.66,-1.49 1.66,-2.57 -2.86,0 -2.42,-0.26 -2.42,-5.21 0,-2.91 0.36,-4.38 -2.87,-4.38 -0.17,0 -0.23,0.05 -0.23,0.23l0 -0z"/>
   <path class="fil1" d="M91.8 18.8c0,2.81 3.55,2.29 3.55,0.38l0 -0.38c0,-0.87 -0.91,-1.62 -1.74,-1.65 -0.87,-0.02 -1.81,0.78 -1.81,1.65l0 0z"/>
  </g>
 </g>
</svg>
