<?xml version="1.0" encoding="UTF-8"?>
<!DOCTYPE svg PUBLIC "-//W3C//DTD SVG 1.1//EN" "http://www.w3.org/Graphics/SVG/1.1/DTD/svg11.dtd">
<!-- Creator: CorelDRAW -->
<svg xmlns="http://www.w3.org/2000/svg" xml:space="preserve" width="0.756256in" height="0.275in" version="1.1" style="shape-rendering:geometricPrecision; text-rendering:geometricPrecision; image-rendering:optimizeQuality; fill-rule:evenodd; clip-rule:evenodd"
viewBox="0 0 158.14 57.5"
 xmlns:xlink="http://www.w3.org/1999/xlink"
 xmlns:xodm="http://www.corel.com/coreldraw/odm/2003">
 <defs>
  <style type="text/css">
   <![CDATA[
    .fil3 {fill:none}
    .fil0 {fill:#46B2C8;fill-rule:nonzero}
    .fil1 {fill:#C7E8EF;fill-rule:nonzero}
    .fil2 {fill:white;fill-rule:nonzero}
   ]]>
  </style>
   <clipPath id="id0">
    <path d="M-0 57.5l158.14 0 0 -57.5 -158.14 0 0 57.5z"/>
   </clipPath>
 </defs>
 <g id="Layer_x0020_1">
  <metadata id="CorelCorpID_0Corel-Layer"/>
  <g>
  </g>
  <g style="clip-path:url(#id0)">
   <g id="_2374588046880">
    <path class="fil0" d="M138.33 56.31l16.53 -11.02c2,-1.36 3.19,-3.59 3.19,-5.99l0 -32.11c0,-3.99 -3.19,-7.19 -7.19,-7.19l-143.68 0c-3.99,0 -7.19,3.19 -7.19,7.19l0 32.67 0 3.2 0 7.19c0,3.99 3.2,7.19 7.19,7.19l127.15 0c1.44,0.08 2.88,-0.32 3.99,-1.12z"/>
    <polygon class="fil1" points="27,14.38 21.48,32.19 21.48,43.13 18.69,43.13 18.69,32.19 13.5,14.38 16.37,14.38 20.05,27.16 24.04,14.38 "/>
    <path class="fil1" d="M41.61 18.13l0 21.25c0,1.92 -1.44,3.51 -3.35,3.75 -0.16,0 -0.24,0 -0.4,0l-4.95 0c-0.16,0 -0.32,0 -0.4,0 -1.92,-0.24 -3.35,-1.84 -3.35,-3.75l0 -21.25c0,-2.08 1.68,-3.75 3.75,-3.75l4.95 0c2.08,0 3.75,1.68 3.75,3.75zm-2.79 0c0,-0.56 -0.48,-0.96 -0.96,-0.96l-4.95 0c-0.56,0 -0.96,0.48 -0.96,0.96l0 21.25c0,0.56 0.48,0.96 0.96,0.96l4.95 0c0.56,0 0.96,-0.48 0.96,-0.96l0 -21.25z"/>
    <path class="fil1" d="M56.95 39.77c0,1.68 -1.28,3.11 -2.96,3.35 -0.16,0 -0.24,0 -0.4,0l-5.83 0c-0.16,0 -0.24,0 -0.4,0 -1.68,-0.24 -2.96,-1.6 -2.96,-3.35l0 -25.4 2.8 0 0 25.4c0,0.32 0.24,0.56 0.56,0.56l5.83 0c0.32,0 0.56,-0.24 0.56,-0.56l0 -25.4 2.8 0 0 25.4z"/>
    <path class="fil2" d="M69.01 40.33c-0.32,1.6 -1.68,2.72 -3.27,2.72 -1.6,0 -2.95,-1.12 -3.27,-2.72l0 -0.08 -3.12 -25.88 2.8 0 3.03 25.48c0.08,0.32 0.32,0.4 0.56,0.4 0.24,0 0.48,-0.08 0.56,-0.4l3.11 -25.48 2.8 0 -3.2 25.96z"/>
    <polygon class="fil2" points="77.39,17.17 77.39,30.59 82.5,30.59 82.5,33.38 77.39,33.38 77.39,40.33 85.78,40.33 85.78,43.13 74.6,43.13 74.6,14.38 85.7,14.38 85.7,17.17 "/>
    <path class="fil2" d="M102.39 43.13l-3.35 0 -6.63 -9.98c-0.32,0.08 -0.64,0.16 -0.96,0.16l0 9.82 -2.79 0 0 -25c0,-2.08 1.68,-3.75 3.75,-3.75l4.95 0c2.08,0 3.75,1.68 3.75,3.75l0 4.15c0,4.31 -2.48,8.07 -6.07,9.9l7.35 10.94zm-10.94 -12.62c3.91,-0.64 6.95,-4.07 6.95,-8.23l0 -4.15c0,-0.56 -0.48,-0.96 -0.96,-0.96l-4.95 0c-0.56,0 -0.96,0.48 -0.96,0.96l-0.08 12.38z"/>
    <polygon class="fil2" points="105.19,14.38 107.98,14.38 107.98,43.13 105.19,43.13 "/>
    <polygon class="fil2" points="114.05,17.17 114.05,30.59 119.16,30.59 119.16,33.38 114.05,33.38 114.05,43.13 111.26,43.13 111.26,14.38 122.36,14.38 122.36,17.17 "/>
    <polygon class="fil2" points="137.37,14.38 131.86,32.19 131.86,43.13 129.07,43.13 129.07,32.19 123.88,14.38 126.75,14.38 130.43,27.16 134.42,14.38 "/>
   </g>
  </g>
  <polygon class="fil3" points="-0,57.5 158.14,57.5 158.14,0 -0,0 "/>
 </g>
</svg>
